{
  "title": "Raaz Reboot (2016) x264 DesiSCR Rip AAC 2.0 -DDR",
  "uid": 15847179,
  "size": 1441820548,
  "categoryP": "video",
  "categoryS": "movies",
  "magnet": "?xt=urn:btih:d8c5d286e8f520de91d99a61900275b788771df9&amp;dn=Raaz+Reboot+%282016%29+x264+DesiSCR+Rip+AAC+2.0+-DDR&amp;tr=udp%3A%2F%2Ftracker.leechers-paradise.org%3A6969&amp;tr=udp%3A%2F%2Fzer0day.ch%3A1337&amp;tr=udp%3A%2F%2Fopen.demonii.com%3A1337&amp;tr=udp%3A%2F%2Ftracker.coppersurfer.tk%3A6969&amp;tr=udp%3A%2F%2Fexodus.desync.com%3A6969",
  "seeders": 100,
  "leechers": 105,
  "uploader": "SaM",
  "files": 4,
  "time": 1474115687,
  "description": "1/3 DvD x264 DesiSCR Rip\r\n\r\nHindi AAC Stereo Audio\r\n \nhttp://extraimago.com/image/wdkV \nhttp://extraimago.com/image/wdk6 \nhttp://extraimago.com/image/wdkx \nhttp://extraimago.com/image/wdkt \nhttp://extraimago.com/image/wdko \nhttp://extraimago.com/image/wdkk \nhttp://extraimago.com/image/wdkH \nhttp://extraimago.com/image/wdkF \nhttp://extraimago.com/image/wdkD \nhttp://extraimago.com/image/wdk5 \nhttp://extraimago.com/image/wdkg \nhttp://extraimago.com/image/wdkX \nhttp://extraimago.com/image/wdkP \nhttp://extraimago.com/image/wdkG \nhttp://extraimago.com/image/wdkr \nhttp://extraimago.com/image/wdkp\r\n\r\nSpecs:\r\nSource: DesiSCR @ ICTV\r\n\r\nFormat : Matroska\r\nFile size : 1.34 GiB\r\nDuration : 2 h 7 min\r\nOverall bit rate : 1 500 kb/s\r\nEncoded date : UTC 2016-09-16 18:11:46\r\n\r\nVideo\r\nID : 1\r\nFormat : AVC\r\nFormat/Info : Advanced Video Codec\r\nFormat profile :   \r\nFormat settings, CABAC : Yes\r\nFormat settings, ReFrames : 16 frames\r\nCodec ID : V_MPEG4/ISO/AVC\r\nDuration : 2 h 7 min\r\nBit rate : 1 370 kb/s\r\nWidth : 720 pixels\r\nHeight : 304 pixels\r\nDisplay aspect ratio : 2.35:1\r\nFrame rate mode : Constant\r\nFrame rate : 25.000 FPS\r\nColor space : YUV\r\nChroma subsampling : 4:2:0\r\nBit depth : 8 bits\r\nScan type : Progressive\r\nBits/(Pixel*Frame) : 0.250\r\nStream size : 1.22 GiB (91%)\r\nDefault : Yes\r\nForced : No\r\nColor range : Limited\r\nColor primaries : BT.601 NTSC\r\nTransfer characteristics : BT.470 System B, BT.470 System G\r\nMatrix coefficients : BT.601\r\n\r\nAudio\r\nID : 2\r\nFormat : AAC\r\nFormat/Info : Advanced Audio Codec\r\nFormat profile : LC\r\nCodec ID : A_AAC\r\nDuration : 2 h 7 min\r\nBit rate : 128 kb/s\r\nChannel(s) : 2 channels\r\nChannel positions : Front: L R\r\nSampling rate : 48.0 kHz\r\nFrame rate : 46.875 FPS (1024 spf)\r\nCompression mode : Lossy\r\nDelay relative to video : 9 ms\r\nStream size : 117 MiB (9%)\r\nLanguage : Hindi\r\nDefault : Yes\r\nForced : No\r\n\r\n\r\nSAMPLE Included",
  "parsed": {
    "xt": "urn:btih:d8c5d286e8f520de91d99a61900275b788771df9",
    "dn": "Raaz Reboot (2016) x264 DesiSCR Rip AAC 2.0 -DDR",
    "tr": [
      "udp://exodus.desync.com:6969",
      "udp://open.demonii.com:1337",
      "udp://tracker.coppersurfer.tk:6969",
      "udp://tracker.leechers-paradise.org:6969",
      "udp://zer0day.ch:1337"
    ],
    "infoHash": "d8c5d286e8f520de91d99a61900275b788771df9",
    "infoHashBuffer": {
      "type": "Buffer",
      "data": [
        216,
        197,
        210,
        134,
        232,
        245,
        32,
        222,
        145,
        217,
        154,
        97,
        144,
        2,
        117,
        183,
        136,
        119,
        29,
        249
      ]
    },
    "name": "Raaz Reboot (2016) x264 DesiSCR Rip AAC 2.0 -DDR",
    "announce": [
      "udp://exodus.desync.com:6969",
      "udp://open.demonii.com:1337",
      "udp://tracker.coppersurfer.tk:6969",
      "udp://tracker.leechers-paradise.org:6969",
      "udp://zer0day.ch:1337"
    ],
    "urlList": []
  },
  "previous": 64,
  "peers": 90,
  "last_updated": "2016-12-27T14:34:30.049Z"
}